<svg width="213" height="20" viewBox="0 0 213 20" fill="none" xmlns="http://www.w3.org/2000/svg">
<path d="M17.8561 10.3263C19.5171 9.83705 22.7749 9.79662 24.567 9.77424C24.5999 9.77366 24.6328 9.77308 24.6656 9.7725C25.0909 9.76715 25.4924 9.74801 25.9627 9.72514C27.0842 9.6706 28.5995 9.59702 31.7747 9.65048C32.6936 9.58529 33.6129 9.52422 34.5324 9.46811C44.4621 8.86207 54.4113 8.57735 64.3645 8.3561C64.4898 8.34646 64.6173 8.33662 64.746 8.3267C67.2341 8.13481 70.3193 7.89698 72.2683 7.91956C74.7463 7.94828 76.432 8.01237 77.8169 8.07195C85.7227 7.9002 93.6266 7.69549 101.521 7.32847C103.995 7.21345 106.468 7.08216 108.94 6.9313C111.216 6.79237 113.492 6.64114 115.767 6.47915C117.088 6.31414 118.342 6.1373 119.505 5.9734C121.139 5.74309 122.594 5.53833 123.8 5.42693C126.704 5.15853 130.013 5.1004 132.471 5.0573C132.873 5.05025 133.252 5.04364 133.603 5.03654C135.546 4.86499 137.49 4.68968 139.433 4.51315C139.565 4.53733 139.698 4.56282 139.833 4.58901C141.521 4.91595 143.563 4.7858 146.777 4.58163C148.177 4.49272 149.799 4.38993 151.711 4.30432C152.943 4.24916 153.586 4.3804 154.111 4.48745C154.266 4.51893 154.411 4.54834 154.557 4.57033C155.058 4.64563 155.572 4.49981 156.18 4.32758C156.968 4.10414 157.913 3.83582 159.191 3.9481C163.262 4.30584 165.015 3.7876 166.341 3.39555C166.73 3.28055 167.082 3.17657 167.445 3.1086C168.623 2.88823 170.323 2.93158 171.614 3.05477C172.637 3.15244 174.655 2.87055 176.18 2.57549C176.757 2.46393 177.543 2.41403 178.469 2.35569C179.427 2.29532 180.536 2.22593 181.717 2.06818C184.701 1.66952 186.288 1.46775 187.564 1.30592C187.927 1.25977 188.266 1.2173 188.604 1.17391C189.674 1.03679 191.002 0.896499 192.348 0.754666C193.957 0.584934 195.591 0.412636 196.832 0.240046C200.069 0.14499 203.308 0.0741439 206.546 0.00304454C208.21 -0.0327806 209.824 0.238669 211.035 0.774754C212.245 1.31134 212.952 2.06415 213.003 2.886C213.053 3.70787 212.442 4.54109 211.306 5.22091C210.17 5.90023 208.6 6.36664 206.945 6.53337C203.61 6.86786 200.274 7.20247 196.937 7.51045C192.872 7.88562 188.805 8.22143 184.732 8.46999C181.883 8.64387 179.033 8.79816 176.182 8.93681C175.888 8.95109 175.595 8.96499 175.301 8.97894C172.92 9.32739 170.543 9.65725 168.863 9.82559C167.477 9.96456 166.457 9.9184 165.584 9.87898C164.983 9.85185 164.451 9.82783 163.917 9.86941C163.631 9.89174 163.239 9.92816 162.767 9.97202C160.84 10.1511 157.567 10.4552 154.563 10.4404C153.23 10.4337 151.677 10.3552 150.195 10.2801C148.075 10.1728 146.098 10.0729 145.111 10.2009C143.378 10.4257 141.376 10.4471 139.607 10.4659C137.919 10.4837 136.444 10.4995 135.615 10.6875C134.625 10.9122 133.769 10.8975 132.495 10.8761C131.612 10.8612 130.527 10.8434 129.059 10.8993C127.363 10.9638 126.159 10.9222 125.134 10.8869C123.693 10.8371 122.609 10.7998 121.013 11.0876C119.241 11.4074 117.384 11.6555 115.911 11.6785C115.24 11.689 114.475 11.7431 113.679 11.7995C112.625 11.8741 111.516 11.9523 110.499 11.9385C109.661 11.9271 108.961 11.8096 108.342 11.7057C108.149 11.6732 107.964 11.6423 107.785 11.6162C107.12 11.6588 106.456 11.7023 105.791 11.7476C105.685 11.7799 105.574 11.8152 105.458 11.8518C104.874 12.0352 104.157 12.2603 103.26 12.4054C101.841 12.6349 100.583 12.6222 99.2558 12.6082C98.2225 12.5973 97.1473 12.5857 95.9218 12.6881C95.0862 12.758 94.1373 12.8814 93.1967 13.0037C91.7998 13.1852 90.4202 13.3642 89.454 13.363C89.092 13.3625 88.7759 13.2812 88.463 13.2002C88.4616 13.1997 88.4602 13.1992 88.4588 13.1987C88.4376 13.1932 88.4163 13.1878 88.395 13.1824C86.0556 13.4018 83.7165 13.629 81.3778 13.8608C81.1762 13.8989 80.9725 13.9368 80.7706 13.9743C79.7841 14.1571 78.8255 14.3347 78.206 14.5417C77.5348 14.766 75.8254 14.977 74.024 15.1993C72.8444 15.3449 71.6248 15.4954 70.6316 15.6577C70.051 15.7526 69.4904 15.6832 68.9136 15.6115C68.3755 15.5446 67.8231 15.476 67.2275 15.5377C66.9291 15.5686 66.6087 15.6311 66.2667 15.6978C65.9656 15.7566 65.6473 15.8189 65.313 15.8655C65.0023 15.9088 64.3036 15.895 63.4078 15.8778C62.8541 15.8672 62.2251 15.8555 61.5656 15.8545C59.833 16.0248 58.0999 16.1925 56.3669 16.3559C56.0101 16.4685 55.7029 16.6052 55.4633 16.7712C55.2914 16.8903 55.1472 17.0289 54.9992 17.1707C54.7977 17.3636 54.5892 17.563 54.2952 17.7298C54.0655 17.8601 53.789 17.9233 53.5985 17.8866C53.5098 17.8695 53.4401 17.8313 53.3769 17.7968C53.3045 17.7573 53.2398 17.7221 53.1639 17.7279C53.1091 17.7321 53.054 17.7666 52.9861 17.8084C52.8778 17.8752 52.7368 17.9615 52.5153 17.9778C51.6909 18.0384 50.7517 18.0709 49.8316 18.1025C48.8084 18.1376 47.8083 18.1722 47.0143 18.2438C46.1247 18.3241 44.8479 18.2865 43.5689 18.2493C42.6767 18.2233 41.7831 18.1979 41.0188 18.2117C40.2697 18.2252 39.4957 18.3364 38.7462 18.4446C37.8465 18.5744 36.9811 18.6995 36.2358 18.6436C36.0851 18.6322 35.8919 18.5187 35.6495 18.3767C35.4777 18.2761 35.28 18.1611 35.0566 18.0576C34.1158 18.1151 33.1745 18.1674 32.233 18.2153C32.2009 18.2343 32.1678 18.2536 32.1346 18.2733C32.1341 18.2737 32.1336 18.2742 32.1331 18.2746C31.3845 18.7191 30.3602 19.327 28.8548 19.0935C28.4721 19.0341 28.225 18.8964 28.0025 18.7725C27.7839 18.6508 27.5885 18.5419 27.3118 18.5334C26.9975 18.5238 26.6335 18.6289 26.2366 18.7433C25.6795 18.9039 25.0571 19.0834 24.4159 18.9908C24.3722 18.9845 24.3251 18.9775 24.2761 18.9706C23.8114 18.9053 23.1236 18.8086 22.4306 18.572C20.4203 18.6203 18.4089 18.6558 16.3974 18.6834C13.0443 18.7294 9.68916 18.7533 6.33504 18.7772C4.70316 18.7878 3.12019 18.5045 1.93309 17.969C0.745863 17.4326 0.0519751 16.6924 0.0027594 15.886C-0.0463564 15.0797 0.552387 14.2611 1.66548 13.5844C2.77865 12.9083 4.31535 12.4348 5.93648 12.2468C8.58 11.942 11.2244 11.637 13.8689 11.3432C14.0069 11.318 14.1455 11.2933 14.2836 11.2696C15.3107 11.0935 16.2563 10.808 17.2025 10.5221C17.4199 10.4565 17.6376 10.3907 17.8561 10.3263Z" fill="black"/>
</svg>
