<svg width="237" height="120" viewBox="0 0 237 120" fill="none" xmlns="http://www.w3.org/2000/svg">
<path d="M29.7017 119.718C23.0349 119.311 19.8501 116.531 19.4383 109.083C19.1495 103.088 19.6769 97.3814 20.9316 91.6131C21.1871 90.1858 21.5886 88.8452 21.8737 87.5342C22.4463 85.407 23.2514 83.2205 20.1599 81.7792C25.6253 80.3868 24.8758 75.5005 25.9957 72.1194C30.3361 59.9924 34.6765 47.8655 39.425 35.8822C40.3168 33.5498 40.7138 31.2197 41.0515 28.657C44.8089 29.3095 47.2643 31.656 49.8929 33.7106C52.0541 35.389 51.509 37.1377 50.6743 39.2079C47.9419 46.4672 45.3554 53.8131 42.9445 61.362C46.1598 57.9423 49.4913 54.4931 52.677 50.9571C59.3971 43.7964 65.6795 36.3756 70.765 28.1453C73.3944 23.8843 75.8483 19.4203 76.1453 14.2674C76.312 12.4913 75.8994 11.3581 74.0344 10.8425C68.7883 9.20712 63.6673 9.52113 58.464 10.9706C47.7954 13.8125 38.0385 18.7749 29.3075 25.3335C20.5764 31.8921 13.5985 39.9853 9.83289 50.4799C9.40181 51.7042 10.0447 52.2834 10.8631 53.0656C11.7112 53.964 13.1111 54.598 13.4096 56.2556C12.0141 56.6112 10.7898 56.1801 9.79805 55.6898C6.15248 54.018 3.2024 51.6738 0.888569 48.4245C-0.693487 46.1032 0.139041 43.5383 1.06045 41.3222C2.87363 36.7737 5.59192 32.8615 8.5724 29.0064C10.6567 26.494 12.9165 24.1846 15.0896 22.0211C18.0449 19.0392 21.2624 16.1143 25.0065 13.7983C34.0042 8.28626 43.2367 3.20976 53.6749 0.921896C60.595 -0.593478 67.5218 -0.624546 73.479 3.80174C77.8585 6.89628 81.5722 10.7796 83.806 15.6592C85.8621 19.841 85.4444 24.034 82.872 28.0328C81.8025 29.6675 81.4625 31.7354 80.4226 33.4864C76.2903 40.1116 71.0478 45.7814 66.4186 51.9141C62.6856 56.704 58.0749 60.4792 53.9908 64.8632C48.9513 70.3575 43.2392 75.1562 37.5886 80.6824C46.047 84.7191 53.6959 89.9527 62.241 93.8435C70.9023 97.7046 80.0496 99.5845 88.9984 102.629C87.1126 103.977 84.9602 104.277 82.8671 104.811C74.6679 106.652 66.802 104.941 58.9909 102.473C51.8205 100.089 45.4003 96.2765 38.7203 92.9012C36.853 91.8909 34.9562 90.7643 32.5349 89.5237C30.1351 99.5464 26.7732 109.195 29.7017 119.718ZM50.9166 15.3701C52.572 14.5769 54.0519 13.5807 56.2635 13.5126C54.494 14.8302 53.2193 16.1456 50.9166 15.3701ZM24.6005 33.5912C24.1013 32.6039 24.4183 31.904 25.1138 31.2314C32.0961 24.1277 40.6901 19.4615 49.7834 15.7827C46.3355 19.2616 41.0116 19.7511 37.7689 23.5493C34.8158 27.026 30.5177 29.1117 27.0402 32.4743C27.0084 31.8632 26.9195 31.5144 26.9469 31.1359C25.5219 31.3751 25.9959 33.2357 24.6005 33.5912ZM17.2782 42.7629C16.8404 42.5029 16.2864 42.2726 16.3731 42.1266C16.4575 41.486 16.4234 40.3801 16.8589 40.1453C18.9773 38.7388 19.2558 35.9435 21.2578 34.5666C21.8963 34.1563 22.2703 33.1942 23.2325 33.5682C24.2242 34.0586 23.4146 35.2555 23.8546 36.0102C24.0598 36.3295 23.2502 37.5264 22.231 37.4145C21.2119 37.3027 20.9497 37.2457 21.0726 38.7003C21.257 40.8823 18.2884 40.8957 17.2782 42.7629Z" fill="black"/>
<path d="M89.9285 97.6868C88.7338 97.372 87.6257 96.9113 86.4014 96.4803C79.491 93.659 77.5512 89.4475 79.3696 79.5729C80.4606 69.7598 83.9411 60.5763 88.2674 51.7964C88.9585 50.1343 90.2036 48.7026 91.5671 47.736C91.8567 47.4146 92.3493 46.9176 92.6115 46.9746C96.6652 48.79 101.369 46.3533 105.341 49.3041C109.691 52.2824 110.379 56.4412 110.487 61.243L110.407 62.8732C116.217 60.4024 123.519 53.0935 128.267 47.4259C131.016 50.4405 128.238 54.1201 126.127 57.0109C122.54 61.8875 114.805 69.9259 109.168 72.1049C105.828 73.5751 105.615 78.0873 104.434 80.7411C102.648 84.9111 99.7335 90.4831 97.4233 94.539C95.7768 97.3113 92.9586 98.4009 89.9285 97.6868ZM97.839 70.4095C98.6826 70.3184 99.2048 69.9377 99.4922 69.1215C101.711 64.2219 103.376 59.0921 102.973 53.6222C103.024 51.8757 102.237 51.7046 100.958 52.0305C97.3532 52.9489 94.5964 54.7658 93.8002 58.9313C94.8216 59.5379 96.1348 60.3178 95.8792 61.7451C95.163 64.2804 95.9881 66.5469 96.6969 68.8429C96.7584 69.5703 96.8495 70.4139 97.839 70.4095ZM86.5273 92.114C87.5465 92.2259 87.9228 91.7585 88.299 91.2911C91.4802 86.7657 94.5067 80.1744 96.9583 75.2157C97.3049 74.632 97.1568 74.0506 96.4569 73.7336C94.006 72.3767 91.6418 70.8738 89.9116 67.9711C87.2977 75.6956 85.126 84.6695 86.5273 92.114Z" fill="black"/>
<path d="M181.21 83.7186C175.309 85.3458 170.633 81.0884 171.128 74.7705C171.637 71.4212 170.605 68.3407 171.579 64.8729C171.98 63.5323 172.352 62.0754 171.269 60.7414C170.537 59.8134 173.093 58.6668 171.808 57.5084C170.093 58.0691 169.518 59.7015 168.506 61.074C165.733 65.7431 162.96 70.4123 159.514 74.386C157.893 76.2851 156.151 77.2242 154.112 77.0005C151.987 76.9227 150.152 76.5235 148.141 75.9213C144.411 74.8903 142.464 69.1945 144.572 65.3142C145.582 63.4469 145.049 61.3538 146.759 59.8036C148.207 58.1963 146.625 55.8751 147.635 54.0079C143.095 60.4894 139.576 67.5776 136.727 74.8665C135.258 78.3366 133.09 81.4896 131.037 84.613C130.403 86.0129 130.296 88.0216 128.084 88.0897C125.116 88.103 122.231 87.4756 119.897 86.0891C118.089 85.3114 118.689 82.8057 119.058 80.854C119.227 79.5727 119.485 78.6402 119.276 77.3314C119.064 75.5279 119.958 73.6903 120.911 72.0852C122.122 69.5477 121.354 67.0191 122.303 64.4245C124.23 59.3517 123.857 53.9981 125.027 48.8704C125.83 46.1892 126.051 43.6561 126.505 41.0638C126.937 39.8395 127.839 39.9809 128.277 40.2409C129.326 40.469 130.55 40.9001 131.629 41.2445C135.099 42.7133 135.6 44.1954 134.309 48.3631L131.25 60.659C130.563 63.3106 129.061 65.6748 129.22 68.73C131.389 65.577 133.151 62.7751 135.117 59.7976C135.696 59.1547 135.259 58.8947 135.024 58.4592C134.609 56.8312 137.469 52.0161 139.183 51.4555C139.494 49.2712 140.037 47.0277 142.301 45.7079C142.057 43.2933 142.404 42.7096 145.334 40.601C144.365 38.7426 146.048 37.5709 147.031 36.0822C149.806 31.9078 149.923 31.8781 154.12 33.2854L158.025 34.5194C159.63 35.4727 159.986 36.8681 159.53 38.9657C158.131 45.1421 155.714 51.2067 154.607 57.5564C154.237 59.5081 152.206 60.7687 152.566 63.1537C152.778 64.9572 152.351 67.1711 152.476 69.1205C153.628 66.3504 157.205 65.8105 157.539 62.2582C157.479 62.0257 157.856 61.5583 158.088 61.4991C159.917 60.414 160.46 58.1705 161.762 56.4766C162.629 55.0175 164.136 53.6428 164.3 51.3719C164.437 49.4795 166.118 47.813 167.771 46.525C168.177 46.1739 168.932 45.734 169.075 45.3258C170.51 40.75 173.461 36.7785 175.887 32.693C176.841 31.088 177.917 30.9376 179.198 31.1065C181.412 31.5332 183.339 32.776 185.381 33.9892C186.373 34.4796 186.175 35.6446 185.917 36.5771C183.702 42.4662 182.39 48.4967 181.079 54.5273C180.794 55.8382 180.041 56.773 179.697 57.8514C179.008 60.0082 179.86 61.8962 179.491 63.8478C178.774 66.3832 178.815 68.9733 178.564 71.3901C178.256 74.0691 177.977 76.8644 178.164 79.5412C178.114 81.2877 179.051 82.535 181.171 81.6232C181.926 81.1832 183.029 80.6544 183.093 81.8765C183.273 83.069 182.14 83.4815 181.21 83.7186ZM166.193 51.5089C167.123 51.2719 167.353 50.7179 166.97 49.701C166.624 50.2846 165.607 50.6675 166.193 51.5089ZM127.087 73.4837C129.557 72.483 127.977 70.6565 128.349 69.1996C128.607 68.2671 127.736 68.7367 127.154 68.8848C127.918 70.424 126.673 71.8557 127.087 73.4837Z" fill="black"/>
<path d="M205.322 68.7832C200.208 70.5815 196.006 68.1847 192.064 65.3501C186.283 61.1268 185.731 55.0755 187.1 48.7828C189.895 35.9352 196.337 25.254 206.428 16.7393C212.14 11.9405 215.847 14.3396 220.666 18.1889C221.776 19.1443 222.132 20.5398 221.876 21.967C221.313 26.0733 220.225 30.0655 218.553 33.7111C214.546 42.2858 209.604 50.108 203.611 57.2073C201.237 60.0411 198.515 62.9637 194.051 60.5099C194.504 64.2332 195.73 65.1591 199.16 64.0377C202.938 62.8275 206.041 60.427 208.707 57.7665C215.892 50.4873 221.589 42.2251 227.256 33.8467C229.222 30.8692 230.517 27.691 232.337 24.6268C233.692 21.6812 235.848 22.37 236.644 24.5202C236.945 26.6726 237.042 29.0005 235.975 31.13C233.724 35.4184 231.795 39.9965 229.106 44.025C224.335 51.0606 219.594 58.2125 213.246 63.9163C210.927 65.9932 208.286 67.7804 205.322 68.7832ZM193.743 56.8732C203.036 45.7136 211.601 34.6154 215.203 20.0761C204.778 25.3325 192.589 46.0224 193.743 56.8732Z" fill="black"/>
</svg>
